<mxfile host="drawio-plugin" modified="2022-02-26T02:16:02.586Z" agent="5.0 (Macintosh; Intel Mac OS X 12_2_1) AppleWebKit/537.36 (KHTML, like Gecko) Chrome/89.0.4389.114 Safari/537.36" etag="G_DD2G9ZSh_DO21xOPWL" version="15.5.4" type="embed"><diagram name="Page-1" id="f1b7ffb7-ca1e-a977-7cf5-a751b3c06c05"><mxGraphModel dx="732" dy="678" grid="1" gridSize="10" guides="1" tooltips="1" connect="1" arrows="1" fold="1" page="1" pageScale="1" pageWidth="826" pageHeight="1169" background="none" math="0" shadow="0"><root><mxCell id="0"/><mxCell id="1" parent="0"/><mxCell id="LPBPRmF8bYWk3yqDpTqz-63" value="" style="rounded=0;whiteSpace=wrap;html=1;" parent="1" vertex="1"><mxGeometry x="240" y="40" width="338" height="40" as="geometry"/></mxCell><mxCell id="LPBPRmF8bYWk3yqDpTqz-65" value="&lt;p style=&quot;line-height: 0.7&quot;&gt;----&lt;br&gt;----&lt;br&gt;----&lt;/p&gt;" style="text;html=1;strokeColor=none;fillColor=none;align=center;verticalAlign=middle;whiteSpace=wrap;rounded=0;" parent="1" vertex="1"><mxGeometry x="250" y="45" width="30" height="30" as="geometry"/></mxCell><mxCell id="LPBPRmF8bYWk3yqDpTqz-67" value="" style="rounded=0;whiteSpace=wrap;html=1;fontSize=8;" parent="1" vertex="1"><mxGeometry x="240" y="80" width="338" height="600" as="geometry"/></mxCell><mxCell id="6fPDFQSaZicd0g3KIfr8-5" value="" style="ellipse;whiteSpace=wrap;html=1;" parent="1" vertex="1"><mxGeometry x="540" y="45" width="30" height="30" as="geometry"/></mxCell><mxCell id="6fPDFQSaZicd0g3KIfr8-6" value="&lt;font style=&quot;font-size: 18px&quot;&gt;[Featured Contests]&lt;/font&gt;" style="text;html=1;strokeColor=none;fillColor=none;align=center;verticalAlign=middle;whiteSpace=wrap;rounded=0;" parent="1" vertex="1"><mxGeometry x="240" y="90" width="190" height="30" as="geometry"/></mxCell><mxCell id="6fPDFQSaZicd0g3KIfr8-26" value="" style="rounded=1;whiteSpace=wrap;html=1;fontSize=18;" parent="1" vertex="1"><mxGeometry x="256" y="450" width="300" height="122" as="geometry"/></mxCell><mxCell id="6fPDFQSaZicd0g3KIfr8-27" value="&lt;font style=&quot;font-size: 22px;&quot;&gt;Contest Name&lt;/font&gt;" style="text;html=1;strokeColor=none;fillColor=none;align=left;verticalAlign=middle;whiteSpace=wrap;rounded=0;fontSize=22;" parent="1" vertex="1"><mxGeometry x="269" y="455" width="240" height="30" as="geometry"/></mxCell><mxCell id="6fPDFQSaZicd0g3KIfr8-28" value="&lt;font style=&quot;font-size: 10px;&quot;&gt;MM/DD/YY 12:12 pm - MM/DD/YY 12:12 pm&lt;/font&gt;" style="text;html=1;strokeColor=none;fillColor=none;align=left;verticalAlign=middle;whiteSpace=wrap;rounded=0;fontSize=10;" parent="1" vertex="1"><mxGeometry x="349" y="485" width="210" height="20" as="geometry"/></mxCell><mxCell id="6fPDFQSaZicd0g3KIfr8-29" value="Fuesce tristque nisi en veeatins volutapat. Ut elememtume accumdwamt doneac ad du massa. vetibula atuctor eli id ears facilisisi." style="text;strokeColor=none;fillColor=none;align=left;verticalAlign=middle;whiteSpace=wrap;rounded=0;fontSize=10;" parent="1" vertex="1"><mxGeometry x="349" y="515" width="210" height="45" as="geometry"/></mxCell><mxCell id="6fPDFQSaZicd0g3KIfr8-30" value="Website&lt;br&gt;Logo" style="rounded=0;whiteSpace=wrap;html=1;fontFamily=Helvetica;fontSize=10;verticalAlign=bottom;" parent="1" vertex="1"><mxGeometry x="270" y="490" width="69" height="69" as="geometry"/></mxCell><mxCell id="6fPDFQSaZicd0g3KIfr8-31" value="" style="endArrow=none;html=1;rounded=0;fontFamily=Helvetica;fontSize=10;exitX=0;exitY=1;exitDx=0;exitDy=0;entryX=1;entryY=0;entryDx=0;entryDy=0;" parent="1" source="6fPDFQSaZicd0g3KIfr8-30" target="6fPDFQSaZicd0g3KIfr8-30" edge="1"><mxGeometry width="50" height="50" relative="1" as="geometry"><mxPoint x="379" y="575" as="sourcePoint"/><mxPoint x="429" y="525" as="targetPoint"/></mxGeometry></mxCell><mxCell id="6fPDFQSaZicd0g3KIfr8-32" value="" style="endArrow=none;html=1;rounded=0;fontFamily=Helvetica;fontSize=10;exitX=0;exitY=0;exitDx=0;exitDy=0;entryX=1;entryY=1;entryDx=0;entryDy=0;" parent="1" source="6fPDFQSaZicd0g3KIfr8-30" target="6fPDFQSaZicd0g3KIfr8-30" edge="1"><mxGeometry width="50" height="50" relative="1" as="geometry"><mxPoint x="379" y="575" as="sourcePoint"/><mxPoint x="429" y="525" as="targetPoint"/></mxGeometry></mxCell><mxCell id="5" value="" style="rounded=1;whiteSpace=wrap;html=1;fontSize=18;" vertex="1" parent="1"><mxGeometry x="257.5" y="130" width="300" height="122" as="geometry"/></mxCell><mxCell id="6" value="&lt;font style=&quot;font-size: 22px;&quot;&gt;Contest Name&lt;/font&gt;" style="text;html=1;strokeColor=none;fillColor=none;align=left;verticalAlign=middle;whiteSpace=wrap;rounded=0;fontSize=22;" vertex="1" parent="1"><mxGeometry x="270.5" y="135" width="240" height="30" as="geometry"/></mxCell><mxCell id="7" value="&lt;font style=&quot;font-size: 10px;&quot;&gt;MM/DD/YY 12:12 pm - MM/DD/YY 12:12 pm&lt;/font&gt;" style="text;html=1;strokeColor=none;fillColor=none;align=left;verticalAlign=middle;whiteSpace=wrap;rounded=0;fontSize=10;" vertex="1" parent="1"><mxGeometry x="350.5" y="165" width="210" height="20" as="geometry"/></mxCell><mxCell id="8" value="Fuesce tristque nisi en veeatins volutapat. Ut elememtume accumdwamt doneac ad du massa. vetibula atuctor eli id ears facilisisi." style="text;strokeColor=none;fillColor=none;align=left;verticalAlign=middle;whiteSpace=wrap;rounded=0;fontSize=10;" vertex="1" parent="1"><mxGeometry x="350.5" y="195" width="210" height="45" as="geometry"/></mxCell><mxCell id="9" value="Website&lt;br&gt;Logo" style="rounded=0;whiteSpace=wrap;html=1;fontFamily=Helvetica;fontSize=10;verticalAlign=bottom;" vertex="1" parent="1"><mxGeometry x="271.5" y="170" width="69" height="69" as="geometry"/></mxCell><mxCell id="10" value="" style="endArrow=none;html=1;rounded=0;fontFamily=Helvetica;fontSize=10;exitX=0;exitY=1;exitDx=0;exitDy=0;entryX=1;entryY=0;entryDx=0;entryDy=0;" edge="1" parent="1" source="9" target="9"><mxGeometry width="50" height="50" relative="1" as="geometry"><mxPoint x="380.5" y="255" as="sourcePoint"/><mxPoint x="430.5" y="205" as="targetPoint"/></mxGeometry></mxCell><mxCell id="11" value="" style="endArrow=none;html=1;rounded=0;fontFamily=Helvetica;fontSize=10;exitX=0;exitY=0;exitDx=0;exitDy=0;entryX=1;entryY=1;entryDx=0;entryDy=0;" edge="1" parent="1" source="9" target="9"><mxGeometry width="50" height="50" relative="1" as="geometry"><mxPoint x="380.5" y="255" as="sourcePoint"/><mxPoint x="430.5" y="205" as="targetPoint"/></mxGeometry></mxCell><mxCell id="12" value="" style="rounded=1;whiteSpace=wrap;html=1;fontSize=18;" vertex="1" parent="1"><mxGeometry x="259" y="280" width="300" height="122" as="geometry"/></mxCell><mxCell id="13" value="&lt;font style=&quot;font-size: 22px;&quot;&gt;Contest Name&lt;/font&gt;" style="text;html=1;strokeColor=none;fillColor=none;align=left;verticalAlign=middle;whiteSpace=wrap;rounded=0;fontSize=22;" vertex="1" parent="1"><mxGeometry x="267.5" y="285" width="240" height="30" as="geometry"/></mxCell><mxCell id="14" value="&lt;font style=&quot;font-size: 10px;&quot;&gt;MM/DD/YY 12:12 pm - MM/DD/YY 12:12 pm&lt;/font&gt;" style="text;html=1;strokeColor=none;fillColor=none;align=left;verticalAlign=middle;whiteSpace=wrap;rounded=0;fontSize=10;" vertex="1" parent="1"><mxGeometry x="347.5" y="315" width="210" height="20" as="geometry"/></mxCell><mxCell id="15" value="Fuesce tristque nisi en veeatins volutapat. Ut elememtume accumdwamt doneac ad du massa. vetibula atuctor eli id ears facilisisi." style="text;strokeColor=none;fillColor=none;align=left;verticalAlign=middle;whiteSpace=wrap;rounded=0;fontSize=10;" vertex="1" parent="1"><mxGeometry x="347.5" y="345" width="210" height="45" as="geometry"/></mxCell><mxCell id="16" value="Website&lt;br&gt;Logo" style="rounded=0;whiteSpace=wrap;html=1;fontFamily=Helvetica;fontSize=10;verticalAlign=bottom;" vertex="1" parent="1"><mxGeometry x="268.5" y="320" width="69" height="69" as="geometry"/></mxCell><mxCell id="17" value="" style="endArrow=none;html=1;rounded=0;fontFamily=Helvetica;fontSize=10;exitX=0;exitY=1;exitDx=0;exitDy=0;entryX=1;entryY=0;entryDx=0;entryDy=0;" edge="1" parent="1" source="16" target="16"><mxGeometry width="50" height="50" relative="1" as="geometry"><mxPoint x="377.5" y="405" as="sourcePoint"/><mxPoint x="427.5" y="355" as="targetPoint"/></mxGeometry></mxCell><mxCell id="18" value="" style="endArrow=none;html=1;rounded=0;fontFamily=Helvetica;fontSize=10;exitX=0;exitY=0;exitDx=0;exitDy=0;entryX=1;entryY=1;entryDx=0;entryDy=0;" edge="1" parent="1" source="16" target="16"><mxGeometry width="50" height="50" relative="1" as="geometry"><mxPoint x="377.5" y="405" as="sourcePoint"/><mxPoint x="427.5" y="355" as="targetPoint"/></mxGeometry></mxCell><mxCell id="19" value="Code&amp;nbsp; unt" style="text;html=1;strokeColor=none;fillColor=none;align=center;verticalAlign=middle;whiteSpace=wrap;rounded=0;fontSize=26;" vertex="1" parent="1"><mxGeometry x="320" y="45" width="160" height="30" as="geometry"/></mxCell><mxCell id="20" value="}{" style="text;html=1;strokeColor=none;fillColor=none;align=center;verticalAlign=middle;whiteSpace=wrap;rounded=0;fontSize=26;" vertex="1" parent="1"><mxGeometry x="383" y="40" width="60" height="30" as="geometry"/></mxCell></root></mxGraphModel></diagram></mxfile>